<svg width="16" height="16" viewBox="0 0 16 16" fill="none" xmlns="http://www.w3.org/2000/svg">
<g clip-path="url(#clip0_28_378)">
<rect width="16" height="16" rx="4" fill="#7C6BE1"/>
<path d="M10.5851 4.68914H13.9589C12.9029 6.80114 10.5989 11.56 9.94057 13C9.46057 12.9863 8.88457 12.9726 8.06172 12.9726C7.15657 12.9726 6.44343 12.9726 6.15543 13C5.456 11.5737 3.152 6.856 2.02743 4.68914H5.552C5.78514 5.49828 6.67657 7.29486 7.23886 8.776C7.59543 9.65371 7.84229 10.3669 8.02057 10.9154H8.144C8.336 10.3531 8.61029 9.62629 8.96686 8.76228C9.55657 7.22628 10.3657 5.38857 10.5851 4.68914Z" fill="white"/>
</g>
<defs>
<clipPath id="clip0_28_378">
<rect width="16" height="16" rx="4" fill="white"/>
</clipPath>
</defs>
</svg>
