<svg width="14" height="13" viewBox="0 0 14 13" fill="none" xmlns="http://www.w3.org/2000/svg">
<path fill-rule="evenodd" clip-rule="evenodd" d="M5.27182 1.805C6.04358 0.481993 7.95518 0.48199 8.72694 1.805L13.4056 9.82549C14.1833 11.1588 13.2216 12.8332 11.678 12.8332H2.32076C0.777181 12.8332 -0.184563 11.1588 0.593203 9.82549L5.27182 1.805ZM7.00004 4.83325C7.36823 4.83325 7.66671 5.13173 7.66671 5.49992V7.49992C7.66671 7.86811 7.36823 8.16659 7.00004 8.16659C6.63185 8.16659 6.33337 7.86811 6.33337 7.49992V5.49992C6.33337 5.13173 6.63185 4.83325 7.00004 4.83325ZM6.16671 9.49992C6.16671 9.03968 6.5398 8.66659 7.00004 8.66659C7.46028 8.66659 7.83337 9.03968 7.83337 9.49992C7.83337 9.96016 7.46028 10.3333 7.00004 10.3333C6.5398 10.3333 6.16671 9.96016 6.16671 9.49992Z" fill="#E6BA64"/>
</svg>
