<svg width="14" height="14" viewBox="0 0 14 14" fill="none" xmlns="http://www.w3.org/2000/svg">
<path fill-rule="evenodd" clip-rule="evenodd" d="M2.32104 1.6304C2.94495 1.3125 3.7617 1.3125 5.39518 1.3125H8.60351C10.237 1.3125 11.0537 1.3125 11.6777 1.6304C12.2265 1.91003 12.6727 2.35622 12.9523 2.90503C13.2702 3.52894 13.2702 4.34568 13.2702 5.97917V8.02083C13.2702 9.65432 13.2702 10.4711 12.9523 11.095C12.6727 11.6438 12.2265 12.09 11.6777 12.3696C11.0537 12.6875 10.237 12.6875 8.60352 12.6875H5.39519C3.7617 12.6875 2.94495 12.6875 2.32104 12.3696C1.77224 12.09 1.32604 11.6438 1.04641 11.095C0.728516 10.4711 0.728516 9.65432 0.728516 8.02083V5.97917C0.728516 4.34568 0.728516 3.52894 1.04641 2.90503C1.32604 2.35622 1.77224 1.91003 2.32104 1.6304ZM3.74203 4.30264C3.54099 4.16862 3.26936 4.22294 3.13533 4.42399C3.0013 4.62503 3.05562 4.89666 3.25667 5.03069L3.84 5.41958L3.90788 5.46484C4.78188 6.04764 5.302 6.39446 5.86345 6.56362C6.60427 6.78682 7.39443 6.78682 8.13525 6.56362C8.6967 6.39446 9.21681 6.04764 10.0908 5.46484L10.1587 5.41958L10.742 5.03069C10.9431 4.89666 10.9974 4.62503 10.8634 4.42399C10.7293 4.22294 10.4577 4.16862 10.2567 4.30264L9.67334 4.69153C8.71067 5.33331 8.30407 5.59891 7.88283 5.72582C7.30663 5.89942 6.69206 5.89942 6.11587 5.72582C5.69463 5.59891 5.28803 5.33331 4.32536 4.69153L3.74203 4.30264Z" fill="#A78EE4"/>
</svg>
