<svg width="13" height="13" viewBox="0 0 13 13" fill="none" xmlns="http://www.w3.org/2000/svg">
<path fill-rule="evenodd" clip-rule="evenodd" d="M6.5 3.70711L8.14645 5.35356C8.34171 5.54882 8.65829 5.54882 8.85355 5.35356C9.04882 5.1583 9.04882 4.84171 8.85355 4.64645L7.11872 2.91162C6.77701 2.56991 6.22299 2.56991 5.88128 2.91162L4.14645 4.64645C3.95118 4.84171 3.95118 5.1583 4.14645 5.35356C4.34171 5.54882 4.65829 5.54882 4.85355 5.35356L6.5 3.70711ZM4.14645 7.64645C4.34171 7.45119 4.65829 7.45119 4.85355 7.64645L6.5 9.2929L8.14645 7.64645C8.34171 7.45119 8.65829 7.45119 8.85355 7.64645C9.04882 7.84171 9.04882 8.1583 8.85355 8.35356L7.11872 10.0884C6.77701 10.4301 6.22299 10.4301 5.88128 10.0884L4.14645 8.35356C3.95118 8.1583 3.95118 7.84171 4.14645 7.64645Z" fill="#9C95AC"/>
</svg>
