<svg width="16" height="16" viewBox="0 0 16 16" fill="none" xmlns="http://www.w3.org/2000/svg">
<path fill-rule="evenodd" clip-rule="evenodd" d="M7.86667 0.833344L7.84526 0.833344C7.30337 0.833339 6.86629 0.833335 6.51235 0.862253C6.14793 0.892027 5.82784 0.954934 5.53169 1.10583C5.06129 1.34551 4.67883 1.72796 4.43915 2.19837C4.28826 2.49451 4.22535 2.81461 4.19558 3.17903C4.16666 3.53297 4.16666 3.97004 4.16667 4.51193V4.51194L4.16667 4.53334V4.85893C3.64372 4.89086 3.2727 4.96264 2.95603 5.12399C2.45426 5.37966 2.04631 5.7876 1.79065 6.28937C1.5 6.8598 1.5 7.60654 1.5 9.10001V10.9C1.5 12.3935 1.5 13.1402 1.79065 13.7107C2.04631 14.2124 2.45426 14.6204 2.95603 14.876C3.52646 15.1667 4.27319 15.1667 5.76667 15.1667H10.2333C11.7268 15.1667 12.4735 15.1667 13.044 14.876C13.5457 14.6204 13.9537 14.2124 14.2094 13.7107C14.5 13.1402 14.5 12.3935 14.5 10.9V9.10001C14.5 7.60654 14.5 6.8598 14.2094 6.28937C13.9537 5.7876 13.5457 5.37966 13.044 5.12399C12.7273 4.96264 12.3563 4.89086 11.8333 4.85893V4.53334V4.51195C11.8333 3.97005 11.8333 3.53297 11.8044 3.17903C11.7746 2.81461 11.7117 2.49451 11.5609 2.19837C11.3212 1.72796 10.9387 1.34551 10.4683 1.10583C10.1722 0.954934 9.85207 0.892027 9.48765 0.862253C9.13371 0.833335 8.69663 0.833339 8.15474 0.833344L8.13334 0.833344H7.86667ZM10.8333 4.83421V4.53334C10.8333 3.96504 10.8329 3.56888 10.8077 3.26046C10.783 2.95788 10.7369 2.78404 10.6698 2.65236C10.526 2.37011 10.2966 2.14064 10.0143 1.99683C9.88264 1.92974 9.7088 1.88365 9.40621 1.85893C9.09779 1.83373 8.70164 1.83334 8.13334 1.83334H7.86667C7.29836 1.83334 6.90221 1.83373 6.59379 1.85893C6.2912 1.88365 6.11736 1.92974 5.98568 1.99683C5.70344 2.14064 5.47397 2.37011 5.33016 2.65236C5.26306 2.78404 5.21698 2.95788 5.19225 3.26046C5.16706 3.56888 5.16667 3.96504 5.16667 4.53334V4.83421C5.35234 4.83334 5.55177 4.83334 5.76667 4.83334H10.2333C10.4482 4.83334 10.6477 4.83334 10.8333 4.83421ZM8 8.83334C8.27614 8.83334 8.5 9.0572 8.5 9.33334V10.6667C8.5 10.9428 8.27614 11.1667 8 11.1667C7.72386 11.1667 7.5 10.9428 7.5 10.6667V9.33334C7.5 9.0572 7.72386 8.83334 8 8.83334Z" fill="#8C77C0"/>
</svg>
