<svg width="18" height="18" viewBox="0 0 18 18" fill="none" xmlns="http://www.w3.org/2000/svg">
<g clip-path="url(#clip0_148_1328)">
<path fill-rule="evenodd" clip-rule="evenodd" d="M8.99998 0.75C9.4142 0.75 9.74998 1.08579 9.74998 1.5V2.29133C10.4378 2.36746 11.0951 2.54705 11.7054 2.81429L12.1005 2.12995C12.3076 1.77123 12.7663 1.64833 13.125 1.85544C13.4837 2.06255 13.6066 2.52124 13.3995 2.87996L13.0038 3.56528C13.5495 3.96785 14.0322 4.45061 14.4348 4.99626L15.1202 4.60055C15.4789 4.39345 15.9376 4.51635 16.1447 4.87507C16.3518 5.23379 16.2289 5.69249 15.8702 5.89959L15.1858 6.29473C15.453 6.905 15.6326 7.56224 15.7087 8.25007H16.5C16.9142 8.25007 17.25 8.58586 17.25 9.00007C17.25 9.41429 16.9142 9.75007 16.5 9.75007H15.7087C15.6326 10.4379 15.453 11.0952 15.1858 11.7055L15.8702 12.1006C16.2289 12.3077 16.3518 12.7664 16.1447 13.1252C15.9376 13.4839 15.4789 13.6068 15.1202 13.3997L14.4348 13.0039C14.0322 13.5496 13.5494 14.0323 13.0038 14.4349L13.3995 15.1203C13.6066 15.479 13.4837 15.9377 13.125 16.1448C12.7663 16.3519 12.3076 16.229 12.1005 15.8703L11.7053 15.1859C11.0951 15.4531 10.4378 15.6327 9.74998 15.7088V16.5C9.74998 16.9142 9.4142 17.25 8.99998 17.25C8.58577 17.25 8.24998 16.9142 8.24998 16.5V15.7088C7.56216 15.6327 6.90493 15.4531 6.29467 15.1859L5.8995 15.8703C5.6924 16.2291 5.23371 16.352 4.87499 16.1449C4.51626 15.9378 4.39336 15.4791 4.60046 15.1203L4.99619 14.4349C4.45052 14.0323 3.96775 13.5496 3.56517 13.0039L2.87979 13.3996C2.52107 13.6067 2.06238 13.4838 1.85527 13.1251C1.64817 12.7664 1.77107 12.3077 2.12979 12.1006L2.81419 11.7054C2.54695 11.0951 2.36736 10.4379 2.29124 9.75004L1.49996 9.75C1.08575 9.74998 0.74998 9.41418 0.75 8.99996C0.75002 8.58575 1.08582 8.24998 1.50004 8.25L2.29124 8.25004C2.36737 7.56224 2.54695 6.90503 2.81417 6.29478L2.1298 5.89967C1.77108 5.69257 1.64817 5.23387 1.85527 4.87515C2.06237 4.51643 2.52106 4.39352 2.87979 4.60062L3.56513 4.9963C3.96772 4.45063 4.45049 3.96785 4.99616 3.56526L4.60046 2.87988C4.39336 2.52116 4.51626 2.06247 4.87498 1.85536C5.2337 1.64826 5.69239 1.77116 5.8995 2.12988L6.29464 2.81428C6.90491 2.54705 7.56215 2.36746 8.24998 2.29133V1.5C8.24998 1.08579 8.58577 0.75 8.99998 0.75ZM5.75226 4.87485C5.22965 5.28694 4.78711 5.79623 4.45211 6.37522C4.00571 7.14675 3.74998 8.04241 3.74998 9.00007C3.74998 9.95775 4.00572 10.8534 4.45213 11.625C4.78713 12.2039 5.22968 12.7132 5.75228 13.1253L7.28985 10.4621C6.95372 10.0693 6.74998 9.55867 6.74998 9.00007C6.74998 8.44148 6.95371 7.93087 7.28984 7.53802L5.75226 4.87485ZM8.5887 6.78771L7.05062 4.12367C7.65278 3.88271 8.3103 3.75007 8.99998 3.75007C9.95767 3.75007 10.8534 4.00582 11.6249 4.45224C12.4218 4.91335 13.0867 5.57823 13.5478 6.37518C13.8755 6.94146 14.1004 7.57461 14.1969 8.25007H11.122C10.8131 7.37618 9.97965 6.75007 8.99998 6.75007C8.85973 6.75007 8.72223 6.76299 8.5887 6.78771ZM11.122 9.75007C10.8131 10.624 9.97965 11.2501 8.99998 11.2501C8.85974 11.2501 8.72224 11.2372 8.58871 11.2124L7.05064 13.8765C7.65279 14.1174 8.31031 14.2501 8.99998 14.2501C9.95766 14.2501 10.8533 13.9943 11.6249 13.5479C12.4218 13.0868 13.0867 12.4219 13.5478 11.625C13.8755 11.0587 14.1004 10.4255 14.1969 9.75007H11.122Z" fill="#9C95AC"/>
</g>
<defs>
<clipPath id="clip0_148_1328">
<rect width="18" height="18" fill="white"/>
</clipPath>
</defs>
</svg>
