<svg width="14" height="14" viewBox="0 0 14 14" fill="none" xmlns="http://www.w3.org/2000/svg">
<path fill-rule="evenodd" clip-rule="evenodd" d="M1.3125 5.05851C1.3125 4.18032 1.3125 3.74122 1.4506 3.35787C1.57267 3.01901 1.77153 2.71301 2.03161 2.46384C2.32583 2.18195 2.72709 2.00361 3.52959 1.64695L5.48376 0.778434C6.04211 0.530279 6.32129 0.406202 6.61148 0.357198C6.86867 0.313767 7.13133 0.313767 7.38852 0.357198C7.67872 0.406202 7.95789 0.530279 8.51624 0.778434L10.4704 1.64695C11.2729 2.00361 11.6742 2.18195 11.9684 2.46384C12.2285 2.71301 12.4273 3.01901 12.5494 3.35787C12.6875 3.74122 12.6875 4.18032 12.6875 5.05851V8.15276C12.6875 8.88326 12.6875 9.24851 12.5868 9.58005C12.4977 9.87356 12.3515 10.1466 12.1568 10.3836C11.9368 10.6513 11.6329 10.8539 11.025 11.2591L9.5886 12.2167C8.65306 12.8404 8.18529 13.1523 7.6797 13.2734C7.23289 13.3805 6.76711 13.3805 6.3203 13.2734C5.81471 13.1523 5.34694 12.8404 4.4114 12.2167L2.97495 11.2591C2.36714 10.8539 2.06323 10.6513 1.84323 10.3836C1.64846 10.1466 1.50232 9.87356 1.41319 9.58005C1.3125 9.24851 1.3125 8.88326 1.3125 8.15276L1.3125 5.05851ZM2.91667 4.53011C2.91667 4.26302 2.91667 4.12948 2.95905 4.01328C2.99651 3.91058 3.05751 3.81809 3.13714 3.7432C3.22725 3.65847 3.35 3.60587 3.5955 3.50066L6.34951 2.32043C6.56671 2.22735 6.6753 2.18081 6.7628 2.19744C6.83927 2.21198 6.90677 2.25649 6.95025 2.32105C7 2.39492 7 2.51307 7 2.74937V11.1035C7 11.382 7 11.5212 6.94182 11.5989C6.89111 11.6666 6.8135 11.709 6.72911 11.715C6.63227 11.7219 6.51517 11.6466 6.28098 11.4961L3.431 9.6639C3.24313 9.54311 3.14919 9.48272 3.0811 9.40182C3.02084 9.33022 2.97554 9.24725 2.9479 9.15783C2.91667 9.05682 2.91667 8.94514 2.91667 8.72179V4.53011Z" fill="#A78EE4"/>
</svg>
