<svg width="14" height="14" viewBox="0 0 14 14" fill="none" xmlns="http://www.w3.org/2000/svg">
<path fill-rule="evenodd" clip-rule="evenodd" d="M2.32104 1.04715C2.94495 0.729248 3.7617 0.729248 5.39518 0.729248H8.60351C10.237 0.729248 11.0537 0.729248 11.6777 1.04715C12.2265 1.32678 12.6727 1.77297 12.9523 2.32178C13.2702 2.94569 13.2702 3.76243 13.2702 5.39592V8.60424C13.2702 10.2377 13.2702 11.0545 12.9523 11.6784C12.6727 12.2272 12.2265 12.6734 11.6777 12.953C11.0537 13.2709 10.237 13.2709 8.60352 13.2709H5.39519C3.7617 13.2709 2.94495 13.2709 2.32104 12.953C1.77224 12.6734 1.32604 12.2272 1.04641 11.6784C0.728516 11.0545 0.728516 10.2377 0.728516 8.60425V5.39592C0.728516 3.76243 0.728516 2.94569 1.04641 2.32178C1.32604 1.77297 1.77224 1.32678 2.32104 1.04715ZM8.01169 4.16925C8.05907 3.93232 7.90542 3.70183 7.66848 3.65445C7.43155 3.60706 7.20107 3.76072 7.15368 3.99765L5.98701 9.83098C5.93963 10.0679 6.09328 10.2984 6.33022 10.3458C6.56715 10.3932 6.79763 10.2395 6.84502 10.0026L8.01169 4.16925ZM9.35035 5.23237C9.17949 5.06151 8.90248 5.06151 8.73163 5.23237C8.56077 5.40322 8.56077 5.68023 8.73162 5.85108L9.88064 7.00011L8.73163 8.14912C8.56078 8.31997 8.56078 8.59698 8.73163 8.76784C8.90248 8.93869 9.17949 8.93869 9.35035 8.76784L10.8087 7.30947C10.9796 7.13862 10.9796 6.86161 10.8087 6.69076L9.35035 5.23237ZM5.26705 5.85114C5.4379 5.68028 5.4379 5.40327 5.26704 5.23242C5.09618 5.06157 4.81917 5.06157 4.64832 5.23243L3.18999 6.69079C3.10794 6.77284 3.06185 6.88412 3.06185 7.00015C3.06185 7.11618 3.10794 7.22746 3.18999 7.30951L4.64833 8.76781C4.81918 8.93867 5.09619 8.93866 5.26705 8.76781C5.4379 8.59695 5.4379 8.31994 5.26704 8.14909L4.11807 7.00014L5.26705 5.85114Z" fill="#A78EE4"/>
</svg>
