<svg width="16" height="16" viewBox="0 0 16 16" fill="none" xmlns="http://www.w3.org/2000/svg">
<path fill-rule="evenodd" clip-rule="evenodd" d="M1.73674 4.25214C1.5 4.90932 1.5 5.66205 1.5 7.16753L1.5 8.54583C1.5 9.43623 1.5 9.88143 1.58777 10.2935C1.74522 11.0326 2.10883 11.712 2.6365 12.253C2.93066 12.5546 3.30109 12.8016 4.04194 13.2955L4.04195 13.2955C5.18175 14.0554 5.75165 14.4353 6.34733 14.6439C7.41725 15.0186 8.58275 15.0186 9.65266 14.6439C10.2483 14.4353 10.8182 14.0554 11.958 13.2955L11.9581 13.2955C12.6989 12.8016 13.0693 12.5546 13.3635 12.253C13.8912 11.712 14.2548 11.0326 14.4122 10.2935C14.5 9.88143 14.5 9.43623 14.5 8.54583L14.5 7.16753L14.5 7.16753C14.5 5.66205 14.5 4.90932 14.2633 4.25214C14.054 3.67124 13.7131 3.14667 13.2672 2.71952C12.7629 2.23628 12.075 1.93056 10.6993 1.31913L10.5993 1.27469C9.6421 0.849283 9.16351 0.636579 8.66604 0.552572C8.22513 0.478118 7.77487 0.478118 7.33396 0.552572C6.83649 0.636579 6.3579 0.849282 5.40073 1.27469L5.30073 1.31913C3.925 1.93056 3.23714 2.23628 2.73276 2.71952C2.28691 3.14667 1.94601 3.67124 1.73674 4.25214ZM10.8637 6.86366C11.1566 6.57077 11.1566 6.0959 10.8637 5.803C10.5708 5.51011 10.0959 5.51011 9.803 5.803L7.33333 8.27267L6.53033 7.46967C6.23744 7.17678 5.76256 7.17678 5.46967 7.46967C5.17678 7.76256 5.17678 8.23744 5.46967 8.53033L6.803 9.86366C6.94365 10.0043 7.13442 10.0833 7.33333 10.0833C7.53224 10.0833 7.72301 10.0043 7.86366 9.86366L10.8637 6.86366Z" fill="#8C77C0"/>
</svg>
